<?xml version="1.0" encoding="UTF-8"?>
<svg width="36px" height="29px" viewBox="0 0 36 29" version="1.1" xmlns="http://www.w3.org/2000/svg" xmlns:xlink="http://www.w3.org/1999/xlink">
    <!-- Generator: Sketch 43.2 (39069) - http://www.bohemiancoding.com/sketch -->
    <title>Fill 1</title>
    <desc>Created with Sketch.</desc>
    <defs></defs>
    <g id="Symbols" stroke="none" stroke-width="1" fill="none" fill-rule="evenodd" opacity="0.5">
        <g id="Header-Desktop" transform="translate(-903.000000, -51.000000)" fill="#858584">
            <g id="Group" transform="translate(894.000000, 49.000000)">
                <g id="shopping57-copy" transform="translate(9.000000, 2.000000)">
                    <path d="M30.6047131,0 L25.8684596,4.86739174 L0,4.86739174 L4.94554653,12.3444537 L4.94315005,12.3444537 L9.32712022,18.9395931 L21.6650246,18.9395931 L20.3948875,23.1793842 L10.3632006,23.1793842 L10.3632006,23.1982532 C9.00519238,23.3073655 7.92917055,24.4608381 7.92917055,25.8842199 C7.92917055,27.3740536 9.11143656,28.5882353 10.566103,28.5882353 C12.0167754,28.5882353 13.1990414,27.3740536 13.1990414,25.8842199 C13.1990414,25.3452217 13.0400746,24.8488839 12.7780588,24.4255612 L17.1748103,24.4255612 C16.9095993,24.8488839 16.7538277,25.3452217 16.7538277,25.8842199 C16.7538277,27.3740536 17.9328984,28.5882353 19.3875649,28.5882353 C20.8382373,28.5882353 22.0205033,27.3740536 22.0205033,25.8842199 C22.0205033,25.2139588 21.7744641,24.6085088 21.3814406,24.1343216 L26.960458,5.51222065 L31.1071761,1.24945856 L36,1.24945856 L36,0 L30.6047131,0 Z M9.96937825,17.6893141 L6.69977367,12.7735192 L19.6120357,12.7735192 L19.6120357,11.5240606 L5.87298629,11.5240606 L2.29343629,6.11438912 L25.5065903,6.11438912 L22.0396751,17.6893141 L9.96937825,17.6893141 Z M11.9824258,25.8809384 C11.9824258,26.6849235 11.3457596,27.3387767 10.566103,27.3387767 C9.7824524,27.3387767 9.14578618,26.6849235 9.14578618,25.8809384 C9.14578618,25.0794144 9.7824524,24.4255612 10.566103,24.4255612 C11.3457596,24.4255612 11.9824258,25.0794144 11.9824258,25.8809384 Z M19.3875649,27.3387767 C18.6039143,27.3387767 17.9704433,26.6849235 17.9704433,25.8809384 C17.9704433,25.0794144 18.6039143,24.4255612 19.3875649,24.4255612 C20.1704167,24.4255612 20.8070829,25.0794144 20.8070829,25.8809384 C20.8070829,26.6849235 20.1704167,27.3387767 19.3875649,27.3387767 Z" id="Fill-1"></path>
                </g>
            </g>
        </g>
    </g>
</svg>